<svg width="382" height="434" viewBox="0 0 382 434" fill="none" xmlns="http://www.w3.org/2000/svg">
<g id="d 3">
<g id="d 2">
<g id="d 1">
<g id="hand-colored-r 1">
<g id="hand-r">
<g id="palm-r">
<path id="metacarpal-lower-r" d="M74.94 300.71C71.41 297.04 64.75 300.48 63.39 305.46C62.03 310.44 64.12 315.63 66.17 320.35C77.13 345.59 88.0866 370.837 99.04 396.09C101.96 402.83 105.99 410.47 113.04 411.53C117.32 412.17 121.51 410.12 125.38 408.12C141.04 400.04 156.84 391.86 170.38 380.44C175.54 376.09 180.38 371.31 185.12 366.52C216.64 334.93 248.63 301.39 263.64 258.79C264.839 255.787 265.564 252.616 265.79 249.39C266.04 240.98 260.36 233.78 254.99 227.39C254.57 220.84 247.82 212.92 241.74 210.98C235.66 209.04 229.03 210.08 223.04 212.26C217.05 214.44 211.49 217.72 205.67 220.37C197.91 223.92 189.67 226.37 182.11 230.32C172.2 235.47 163.67 243.02 154.22 249.03C141.22 257.32 126.55 262.6 113.22 270.34C98.33 279.02 87.93 289.24 74.94 300.71Z" fill="#E5B0A5"/>
<path id="index-metacarpal-r" d="M191.06 250C202.42 249.1 217.83 248.2 227.14 240.51C235.7 233.45 241.7 231.39 245.4 219.98C248.88 209.23 250.58 196.63 243.4 187.11C237.61 179.47 227.86 176.54 218.66 176.02C208.663 175.48 198.676 177.246 189.47 181.18C186.07 182.63 182.68 184.45 180.35 187.45C178.706 189.78 177.481 192.379 176.73 195.13C172.6 208.179 171.636 222.025 173.92 235.52C174.74 240.39 176.29 245.64 180.24 248.26C183.36 250.37 187.35 250.29 191.06 250Z" fill="#E5B0A5"/>
<path id="metacarpal-upper-r" d="M169.97 180.55C166.601 180.987 163.307 181.882 160.18 183.21C152.01 187.13 145.01 192.09 136.56 195.72C127.157 199.751 118.088 204.523 109.44 209.99C103.07 214.013 96.9485 218.418 91.11 223.18C90.7718 224.112 90.1948 224.939 89.4366 225.577C88.6785 226.216 87.7658 226.645 86.79 226.82C79.0447 233.528 71.9069 240.906 65.46 248.87C62.3999 252.439 59.8243 256.397 57.8 260.64C52.08 273.64 56.26 288.47 61.14 301.81C61.75 303.47 62.48 305.27 64.14 306.18C65.62 307 67.49 306.88 69.22 306.68C84.58 304.81 98.42 297.55 111.81 290.43C141.72 274.54 177.88 261.52 196.41 233.43C208.44 215.14 199.03 175.39 169.97 180.55Z" fill="#E5B0A5"/>
<path id="carpal-r" d="M107.89 407.46C107.77 418.31 116.52 427.62 126.49 431.22C136.46 434.82 147.39 433.87 157.86 432.45C169.74 430.837 181.53 428.663 193.23 425.93C203.06 423.64 212.33 422.59 222.23 420.61C234.81 418.08 248.55 414.84 256.29 404.34C258.925 400.458 260.948 396.195 262.29 391.7C265.87 381.15 268.01 368.84 262.29 359.31C258.58 353.09 251.98 349.1 245.09 347.31C238.2 345.52 230.97 345.72 223.88 346.31C195.718 348.651 168.347 356.798 143.49 370.24C129.14 378.01 115.27 387.93 106.82 402.15C105.4 404.65 106.21 405.09 107.89 407.46Z" fill="#E5B0A5"/>
<path id="thumb-metacarpal-r" d="M198.601 408.517C202.455 413.109 209.494 414.533 216.136 413.393C222.778 412.253 229.084 408.912 234.889 405.116C251.751 394.01 265.542 379.005 274.439 362.087C277.837 355.692 276.199 347.222 275.91 340.509C274.848 314.646 272.449 289.044 268.715 263.704C267.889 258.09 266.941 252.337 263.785 247.792C260.629 243.247 254.691 240.192 248.618 241.812C244.514 242.896 238.23 241.509 234.408 243.494C231.921 244.791 227.417 246.353 224.855 247.45C221.739 248.787 218.697 250.346 215.764 252.112C210.48 255.57 205.276 258.121 202.378 263.492C199.481 268.864 198.483 274.73 197.515 280.475L190.507 322.49C187.366 341.134 184.223 359.83 183.574 378.369C183.437 382.457 183.431 386.626 184.862 390.272C186.092 393.051 187.788 395.568 189.9 397.748C193.333 401.636 195.261 404.545 198.601 408.517Z" fill="#E5B0A5"/>
</g>
<g id="pinkie-r">
<path id="proximal-5-r" d="M78.5593 233.464C78.7027 233.555 78.7872 233.765 78.8121 234.093C78.8159 234.148 78.8185 234.21 78.8185 234.275C78.6742 234.558 78.5333 234.854 78.4186 235.116C78.3038 235.378 78.2218 235.589 78.1856 235.717C78.0735 236.102 78.0116 236.393 78.0014 236.583C77.9927 236.61 77.9854 236.632 77.9783 236.656C77.818 237.207 77.6779 237.719 77.5381 238.231C77.4546 238.431 77.396 238.591 77.3683 238.694C77.2353 239.16 77.0388 239.747 76.8855 240.252C76.8394 240.363 76.7933 240.473 76.7437 240.589C76.2881 241.659 75.7072 242.934 75.0851 244.17C74.7414 244.846 74.3994 245.501 74.0684 246.115C73.4971 247.185 72.9286 248.246 72.363 249.297C72.161 249.679 71.9711 250.017 71.809 250.285C71.6822 250.482 71.5882 250.602 71.5349 250.636C71.2745 250.857 71.0683 251.026 71.4042 250.086C72.1375 248.032 72.6288 246.41 72.8598 245.282C72.9823 244.682 73.0344 244.21 73.36 243.231C73.6855 242.253 74.3556 240.623 75.234 238.838C75.5937 238.113 75.9578 237.404 76.3111 236.74C76.6186 236.152 76.9179 235.599 77.1988 235.1C78.0917 233.531 78.4031 233.365 78.5593 233.464Z" fill="#E0674E"/>
<path id="intermediate-5-r" d="M88.3932 226.016C93.3585 229.807 97.9747 234.035 102.187 238.649C104.113 242.445 106.369 246.066 108.929 249.467C109.332 254.433 113.986 259.86 111.418 264.002C110.472 265.543 108.712 266.428 107.023 267.258L94.2545 273.455C91.5984 274.758 88.5175 276.064 85.5498 275.074C84.2051 274.543 82.9596 273.793 81.862 272.852L71.4914 264.885C65.6676 260.41 59.3642 255.188 58.3313 248.397C58.1837 247.591 58.1747 246.765 58.3047 245.956C58.6925 243.918 60.1934 242.427 61.6903 241.012C66.278 236.71 71.106 232.672 76.1512 228.917C79.2606 226.6 82.9561 224.315 86.8771 224.157C87.2168 224.895 87.7383 225.534 88.3932 226.016Z" fill="#E0674E"/>
<path id="distal-5-r" d="M127.201 270.248C133.372 275.715 138.532 282.227 142.442 289.485C144.143 292.67 145.625 296.116 145.526 299.699C145.34 306.181 139.695 311.575 133.387 313.079C129.22 313.947 124.898 313.704 120.855 312.373C115.576 308.954 110.554 305.155 105.826 301.006C99.1898 294.851 94.8376 286.698 88.1072 280.552C87.2059 276.884 87.5154 273.022 88.9892 269.544C90.4981 266.063 93.0892 263.191 95.6494 260.382C96.6798 259.148 97.8607 258.047 99.1632 257.105C102.123 255.138 106.688 254.282 110.264 254.122C114.439 260.662 121.327 265.035 127.201 270.248Z" fill="#E0674E"/>
</g>
<g id="ring-r">
<path id="proximal-4-r" d="M128.917 215.287C126.668 213.528 123.722 212.654 120.196 212.698C119.703 212.68 119.14 212.778 118.524 212.988C118.397 213.116 118.266 213.233 118.135 213.335C117.831 213.563 117.545 213.683 117.334 213.671C116.966 213.962 116.602 214.328 116.279 214.732C115.125 216.155 114.449 217.694 113.868 219.115C113.41 220.229 112.964 221.383 113.026 222.166C113.117 223.272 114.184 223.365 115.193 223.397C116.941 223.455 119.133 222.715 120.547 223.308C120.727 223.382 120.913 223.456 121.105 223.526C122.16 223.903 123.435 224.088 125.249 223.038C127.063 221.988 129.239 219.533 129.727 217.69C130.073 216.383 129.517 215.759 128.917 215.287Z" fill="#E0674E"/>
<path id="intermediate-4-r" d="M143.5 211.5C140.528 208.262 135 193.5 127.6 195.991C126.714 196.351 125.858 196.781 125.04 197.277L112.639 204.479C108.193 207.049 103.362 210.119 102.097 215.087C100.61 220.908 104.642 226.583 108.456 231.249C113.721 237.714 118.986 244.174 124.25 250.63C125.318 252.045 126.54 253.336 127.892 254.482C128.514 254.958 129.185 255.367 129.894 255.701C130.357 255.814 130.803 255.993 131.217 256.233C141.073 259.616 158.387 253.117 159.1 242.618C159.834 231.826 149.144 221.104 143.5 211.5Z" fill="#E0674E"/>
<path id="distal-4-r" d="M161.986 245.925C164.731 250.774 170.66 255.938 174.505 259.969C175.797 261.255 176.986 262.641 178.062 264.113C178.879 265.354 179.614 266.647 180.264 267.984L186.251 279.593C188.676 284.295 191.014 288.615 188.323 293.16C187.415 294.542 186.31 295.784 185.044 296.846C182.834 299.081 180.326 301.001 177.592 302.551C174.83 303.896 171.76 304.478 168.698 304.235C165.636 303.993 162.695 302.936 160.18 301.174C152.495 295.641 147.121 287.488 142.908 279.01C141.987 277.139 141.161 275.216 140.065 273.447C138.883 271.516 137.076 268.565 135.251 266.015C135.193 265.269 134.955 264.548 134.557 263.915C134.537 262.845 134.162 261.812 133.49 260.978C133.586 260.226 133.521 259.462 133.3 258.737C133.275 258.721 133.252 258.702 133.231 258.68C134.319 256.138 135.933 253.855 137.968 251.982C140.002 250.109 142.41 248.689 145.034 247.814C147.101 247.159 149.335 246.821 151.088 245.556C152.84 244.292 154.084 242.182 156.19 241.842C158.694 241.365 160.742 243.723 161.986 245.925Z" fill="#E0674E"/>
</g>
<g id="middle-r">
<path id="proximal-3-r" d="M167.942 189.29C166.828 189.992 166.828 189.501 166.002 189.881C165.278 190.212 163.957 191.206 162.611 192.339C158.411 195.873 153.871 200.889 153.575 202.321C153.437 202.99 154.094 202.941 154.737 202.878L162.222 202.178C162.717 202.13 163.385 201.978 164.842 200.805C166.017 199.858 168.212 197.819 169.419 196.66C170.625 195.5 171.798 194.27 172.447 193.396C173.39 192.12 174.751 190.238 174.508 189.956C174.298 189.732 173.627 189.946 173.374 189.762C173.298 189.681 173.249 189.571 173.109 189.55C172.905 189.555 172.645 189.616 172.332 189.731C171.709 189.916 171.282 189.902 171.065 189.691C170.812 189.42 170.329 189.409 170.09 189.126C169.906 188.927 169.717 188.725 169.2 188.852C168.858 188.955 168.079 189.386 167.942 189.29Z" fill="#E0674E"/>
<path id="intermediate-3-r" d="M175.377 241.414C172.428 239.722 170.162 237.062 168.117 234.347C163.704 228.189 159.691 221.752 156.105 215.079L147.673 200.197C146.477 198.084 145.238 195.82 145.32 193.389C145.427 190.046 147.946 187.323 150.42 185.078C153.233 182.536 156.199 180.168 159.298 177.985C163.118 175.306 167.652 172.82 172.219 173.767C177.678 174.893 180.932 180.366 183.516 185.314C187.835 193.597 192.15 201.978 196.553 210.263C198.763 214.399 203.017 219.361 203.391 224.2C204.403 236.913 186.14 247.876 175.377 241.414Z" fill="#E0674E"/>
<path id="distal-3-r" d="M202.507 283.962C198.691 283.422 195.536 280.896 192.798 278.157C187.893 273.333 183.643 267.884 180.159 261.951C177.571 257.527 175.387 252.217 177.232 247.455C178.247 244.835 180.347 242.806 182.455 240.946C186.787 237.148 191.41 233.697 196.282 230.624C199.594 228.514 204.219 226.683 207.123 229.32C208.108 230.367 208.842 231.623 209.269 232.995L217.251 253.06C221.472 263.802 220.206 286.364 202.507 283.962Z" fill="#E0674E"/>
</g>
<g id="index-r">
<path id="proximal-2-r" d="M234.983 178.97L233.908 131.52C233.788 126.507 234.181 126.267 232.422 121.589C233.397 118.245 231.142 114.623 228.096 112.932C225.05 111.242 221.416 111.033 217.933 110.992C213.469 110.95 208.915 111.113 204.695 112.546C200.651 113.798 197.239 116.552 195.162 120.241C195.299 123.372 195.367 126.5 195.244 129.638C195.225 130.519 194.966 131.377 194.493 132.122C194.617 132.887 194.577 133.669 194.377 134.418C194.178 135.167 193.823 135.865 193.336 136.468C193.13 150.943 192.934 165.416 192.748 179.886C192.652 186.75 192.673 194.031 196.274 199.876C200.021 200.812 202.05 204.342 205.605 205.869C207.494 206.528 209.531 206.634 211.477 206.175C218.015 205.097 224.12 202.205 229.095 197.829C233.628 193.839 235.118 185.035 234.983 178.97Z" fill="#68B6CE"/>
<path id="intermediate-2-r" d="M233.195 118.094C232.418 104.936 231.643 91.7783 230.873 78.6205C230.574 73.5981 230.051 68.0535 226.386 64.5983C222.483 60.9104 216.472 60.958 211.124 61.3506C205.777 61.7432 199.38 62.8622 196.856 67.6876C195.298 70.6707 195.693 74.256 195.916 77.6522C196.404 85.0728 195.831 92.525 194.214 99.7836C194.145 107.641 195.049 115.488 195.24 123.359L195.336 123.434C196.613 124.07 198.032 124.365 199.457 124.289C208.755 124.544 218.059 124.216 227.316 123.306C229.621 123.075 232.368 122.427 233.075 120.201C233.235 119.51 233.275 118.799 233.195 118.094Z" fill="#68B6CE"/>
<path id="distal-2-r" d="M192.772 53.416C192.656 55.3101 192.817 57.2108 193.249 59.0585C194.431 63.2856 198.288 66.3302 202.473 67.6895C206.658 69.0489 211.154 68.8523 215.53 68.4792C220.861 68.0157 227.01 66.6635 229.344 61.8383C230.904 58.595 230.192 54.7728 229.454 51.2597L226.5 20.5C224.678 11.8336 212.294 8.87046 200.844 13.1912C190.812 17.0049 192.915 44.7017 192.772 53.416Z" fill="#68B6CE"/>
</g>
<g id="thumb-r">
<path id="proximal-1-r" d="M180.736 259.318C177.172 263.642 174.096 269.438 175.544 275.004C177.327 281.905 184.691 284.566 190.753 287.292C202.806 292.712 212.993 302.057 224.592 308.529C236.191 315 250.726 318.292 262.067 311.101C263.899 311.569 265.498 308.052 266.553 306.285C269.6 301.409 272.423 296.162 273.883 290.448C275.344 284.735 275.389 278.401 272.909 273.122C272.35 271.843 271.565 270.674 270.591 269.672C269.065 268.366 267.293 267.379 265.378 266.771L258.377 264.025C243.606 258.261 229.845 254.641 216.626 245.509C212.978 242.994 209.259 240.266 204.971 239.656C198.355 238.708 192.121 242.97 186.556 247.041C183.179 249.521 179.557 252.342 178.458 256.61C177.441 260.571 178.847 264.973 177.485 268.81" fill="#68B6CE"/>
<path id="distal-1-r" d="M121.864 272.615C122.961 279.002 128.617 283.765 134.802 285.716C140.986 287.667 147.562 287.338 153.98 286.984L156.404 286.855C156.803 286.459 157.282 286.154 157.809 285.961C158.336 285.768 158.899 285.692 159.458 285.737C160.671 285.811 161.877 285.913 163.061 286.021C178.204 287.013 194.865 281.784 208.311 274.976C210.46 273.177 212.101 270.938 211.896 268.25C211.722 266.967 211.3 265.729 210.654 264.607C203.362 250.193 185.526 242.022 169.845 245.92C154.677 249.676 143.144 262.889 127.911 266.291C125.635 266.812 122.947 267.345 122.005 269.472C121.647 270.482 121.598 271.577 121.864 272.615Z" fill="#68B6CE"/>
</g>
</g>
</g>
</g>
</g>
</g>
</svg>
