<svg width="382" height="434" viewBox="0 0 382 434" fill="none" xmlns="http://www.w3.org/2000/svg">
<g id="h 2">
<g id="h 1">
<g id="hand-colored-r 1">
<g id="hand-r">
<g id="palm-r">
<path id="metacarpal-lower-r" d="M70.8344 300.655C68.4044 297.414 64.2154 300.725 63.5234 305.291C62.8324 309.857 64.3874 314.521 65.8984 318.757C73.9774 341.413 82.0544 364.075 90.1294 386.742C92.2824 392.792 95.1894 399.63 99.8044 400.401C102.605 400.866 105.245 398.887 107.679 396.962C117.529 389.185 127.466 381.313 135.812 370.557C138.993 366.459 141.949 361.979 144.841 357.493C164.079 327.9 183.546 296.521 191.65 257.366C192.313 254.602 192.662 251.698 192.684 248.758C192.524 241.102 188.563 234.709 184.834 229.045C184.31 223.099 179.627 216.081 175.608 214.483C171.589 212.884 167.328 214.012 163.525 216.158C159.722 218.305 156.241 221.44 152.567 224.01C147.669 227.451 142.417 229.904 137.663 233.704C131.432 238.659 126.187 245.759 120.287 251.483C112.171 259.379 102.856 264.582 94.5054 271.986C85.1774 280.288 78.8224 289.868 70.8344 300.655Z" fill="#E5B0A5"/>
<path id="index-metacarpal-r" d="M139.91 248.026C146.875 246.892 156.336 245.654 161.772 238.251C166.769 231.454 170.386 229.38 172.218 218.659C173.94 208.558 174.493 196.781 169.695 188.103C165.826 181.139 159.703 178.664 154.013 178.419C147.831 178.176 141.746 180.08 136.227 183.983C134.189 185.421 132.172 187.204 130.853 190.058C129.932 192.271 129.279 194.723 128.924 197.304C126.892 209.562 126.841 222.481 128.779 234.987C129.476 239.501 130.637 244.349 133.174 246.687C135.18 248.57 137.635 248.392 139.91 248.026Z" fill="#E5B0A5"/>
<path id="metacarpal-upper-r" d="M124.186 183.903C122.127 184.397 120.132 185.317 118.257 186.634C113.376 190.497 109.258 195.298 104.193 198.897C98.5574 202.895 93.1554 207.575 88.0414 212.89C84.2734 216.802 80.6744 221.063 77.2634 225.649C77.0914 226.526 76.7684 227.311 76.3264 227.925C75.8844 228.539 75.3384 228.963 74.7444 229.151C70.2344 235.599 66.1254 242.654 62.4654 250.238C60.7194 253.641 59.2884 257.393 58.2074 261.397C55.1934 273.651 58.3514 287.352 61.8824 299.647C62.3234 301.177 62.8444 302.834 63.9034 303.638C64.8474 304.363 65.9944 304.203 67.0534 303.972C76.4454 301.831 84.6894 294.711 92.6604 287.733C110.468 272.159 132.24 259.095 142.556 232.457C149.251 215.113 141.891 178.343 124.186 183.903Z" fill="#E5B0A5"/>
<path id="carpal-r" d="M94.8414 396.812C95.1934 406.918 100.951 415.36 107.237 418.453C113.522 421.546 120.22 420.377 126.617 418.783C133.874 416.972 141.054 414.641 148.157 411.792C154.125 409.404 159.796 408.186 165.819 406.085C173.472 403.402 181.812 400.028 186.17 390.049C187.641 386.366 188.72 382.343 189.371 378.123C191.163 368.206 191.998 356.687 188.099 347.962C185.568 342.266 181.344 338.722 177.028 337.235C172.712 335.747 168.264 336.121 163.918 336.855C146.655 339.767 130.108 348.064 115.318 361.228C106.78 368.836 98.6224 378.434 93.9734 391.895C93.1964 394.26 93.7134 394.648 94.8414 396.812Z" fill="#E5B0A5"/>
<path id="thumb-metacarpal-r" d="M135.685 385.556C136.395 392.391 140.336 398.168 144.997 401.227C149.658 404.285 154.942 405.013 160.079 404.988C175.032 404.843 189.511 399.018 201.601 388.287C206.193 384.252 208.367 375.068 210.732 368.42C219.878 342.838 228.075 316.673 235.321 289.924C236.927 283.999 238.509 277.864 238.226 271.51C237.943 265.156 235.323 258.497 230.841 256.257C227.817 254.733 224.343 249.464 221.156 248.984C219.08 248.678 215.619 247.364 213.571 246.817C211.08 246.155 208.551 245.753 206.013 245.618C201.336 245.643 197.054 244.844 193.169 248.205C189.285 251.567 186.421 256.594 183.623 261.523L163.204 297.613C154.124 313.609 145.023 329.653 137.568 347.107C135.929 350.959 134.342 354.973 133.868 359.381C133.595 362.827 133.72 366.314 134.236 369.735C134.945 375.63 135.068 379.638 135.685 385.556Z" fill="#E5B0A5"/>
</g>
<g id="thumb-r">
<path id="proximal-1-r" d="M241.8 277.026C240.435 277.325 238.649 277.453 237.043 276.866C235.052 276.141 234.45 274.787 233.797 273.638C232.498 271.353 229.994 269.12 228.374 266.842C226.753 264.564 226.144 262.015 228.547 260.646C228.455 260.321 229.532 260.287 230.08 260.229C231.594 260.048 233.212 259.927 234.934 260.055C236.656 260.182 238.525 260.577 240.021 261.311C240.384 261.483 240.709 261.683 240.981 261.903C241.328 262.232 241.575 262.58 241.707 262.927L242.343 264.228C243.676 266.972 244.401 269.417 246.766 272.125C247.417 272.872 248.13 273.644 248.203 274.373C248.318 275.498 246.905 276.231 245.566 276.869C244.75 277.255 243.828 277.659 242.542 277.565C241.348 277.477 240.084 276.971 238.919 276.947" fill="#68B6CE"/>
<path id="distal-1-r" d="M228.073 321.735C221.818 319.969 217.139 314.371 215.212 308.656C213.285 302.941 213.588 297.163 213.916 291.529L214.036 289.4C214.422 289.096 214.719 288.711 214.906 288.268C215.094 287.826 215.167 287.337 215.121 286.837C215.045 285.755 214.941 284.675 214.833 283.614C213.819 270.091 218.889 256.001 225.515 244.952C227.27 243.274 229.457 242.1 232.088 242.616C233.345 242.93 234.558 243.458 235.658 244.169C249.788 252.415 257.837 269.215 254.066 282.604C250.433 295.557 237.533 304.116 234.246 317.172C233.742 319.12 233.229 321.432 231.149 322.001C230.161 322.192 229.09 322.099 228.073 321.735Z" fill="#68B6CE"/>
</g>
<g id="pinkie-r">
<path id="proximal-5-r" d="M132.286 283.415C140.123 282.271 148.006 281.515 155.888 281.153C157.193 281.095 158.592 281.043 159.94 281.009C159.864 281.964 160.202 282.887 160.901 283.628C161.597 284.369 162.614 284.885 163.785 285.095C167.162 285.751 170.663 286.072 174.209 286.051C174.389 286.104 174.566 286.148 174.756 286.189C179.605 287.128 184.473 287.931 189.353 288.733C190.074 289.267 190.977 289.631 191.973 289.789C196.179 290.563 200.265 291.759 204.452 292.667C204.839 292.962 205.226 293.257 205.59 293.575C209.021 296.501 211.517 300.277 211.488 304.388C211.348 306.663 210.811 308.937 209.892 311.147C208.53 314.957 207.076 318.75 205.533 322.526C205.121 323.871 204.31 325.146 203.171 326.246C202.011 327.114 200.625 327.769 199.126 328.159C192.946 330.034 187.903 331.524 182.236 329.446C169.794 324.912 156.351 322.002 142.407 320.825C134.965 320.202 127.292 320.05 120.379 318.072C113.465 316.094 107.265 311.822 106.46 306.037C106.254 303.665 106.564 301.251 107.379 298.896C107.869 296.851 108.746 294.852 109.982 292.965C114.282 286.956 123.736 284.661 132.286 283.415Z" fill="#E0674E"/>
<path id="intermediate-5-r" d="M154.837 284.907C162.891 284.905 170.872 285.466 178.686 286.583C183.442 288.445 188.434 289.963 193.601 291.121C197.523 294.852 206.387 296.349 206.504 301.238C206.557 303.051 205.266 304.836 204.014 306.535L194.493 319.31C192.521 321.979 190.091 324.91 186.173 325.933C184.34 326.331 182.46 326.492 180.607 326.41L163.752 326.376C154.286 326.356 143.774 326.031 137.887 321.225C137.16 320.67 136.571 320.014 136.145 319.286C135.136 317.417 135.72 315.305 136.353 313.256C138.318 307.003 140.729 300.815 143.575 294.722C145.327 290.964 147.738 286.872 151.886 284.347C152.773 284.729 153.788 284.922 154.837 284.907Z" fill="#E0674E"/>
<path id="distal-5-r" d="M162.657 286.203C173.196 286.805 183.371 288.863 192.712 292.282C196.794 293.792 200.823 295.645 203.229 298.575C207.576 303.879 205.228 311.653 199.431 316.717C195.514 319.963 190.648 322.412 185.322 323.821C177.189 324.313 169.067 324.344 161.021 323.914C149.493 323.046 139.044 319.18 127.421 318.377C123.867 315.991 121.494 312.709 120.655 309.022C119.851 305.311 120.65 301.425 121.46 297.609C121.713 295.99 122.224 294.387 122.978 292.835C124.813 289.449 129.171 285.97 132.944 283.654C142.068 286.336 152.618 285.624 162.657 286.203Z" fill="#E0674E"/>
</g>
<g id="ring-r">
<path id="proximal-4-r" d="M131.723 251.32C156.506 248.678 181.461 249.364 205.602 253.349C209.105 253.837 212.483 254.737 215.632 256.02C215.841 256.53 216.133 257.01 216.499 257.45C217.41 258.444 218.756 259.104 220.274 259.301C221.291 260.548 221.883 262.006 221.993 263.532C222.502 268.92 219.095 274.123 215.65 278.878C212.961 282.61 209.989 286.445 205.448 288.648C199.015 291.754 191.148 290.857 184.008 289.847C171.619 288.101 160.35 283.56 147.468 283.733C145.83 283.75 144.156 283.762 142.467 283.755C133.192 283.695 123.408 282.837 116.384 277.807C109.36 272.777 107.207 263.281 113.506 257.402C117.98 253.234 125.101 252.032 131.723 251.32Z" fill="#E0674E"/>
<path id="intermediate-4-r" d="M134.812 251.613C136.083 251.739 137.39 251.521 138.536 250.993L138.291 251.112C138.531 251.004 138.78 250.908 139.034 250.825C139.375 250.786 139.715 250.747 140.056 250.708C140.986 250.595 141.881 250.305 142.67 249.863C147.808 250.948 153.12 251.498 158.484 251.496C171.644 253.838 190.703 251.111 199.359 258.973C207.781 266.621 198.374 283.829 186.92 288.821C186.355 288.964 185.815 289.172 185.315 289.438C184.414 289.736 183.48 289.954 182.531 290.091C180.373 290.314 178.202 290.341 176.058 290.171C165.938 289.685 155.813 289.196 145.684 288.703C138.362 288.358 129.98 287.49 126.257 282.443C123.075 278.138 124.618 272.485 126.258 267.455L130.803 253.403C131.084 252.462 131.456 251.537 131.914 250.638C132.755 251.161 133.751 251.497 134.812 251.613Z" fill="#E0674E"/>
<path id="distal-4-r" d="M143.742 249.402C150.295 250.661 159.88 249.78 166.682 249.671C168.91 249.588 171.134 249.649 173.333 249.852C175.11 250.09 176.861 250.423 178.575 250.85L193.759 254.297C199.909 255.693 205.655 256.894 207.236 261.966C207.639 263.575 207.751 265.234 207.569 266.891C207.578 270.04 207.058 273.196 206.023 276.269C204.788 279.222 202.628 281.887 199.767 283.986C196.905 286.085 193.446 287.543 189.749 288.207C178.325 290.136 166.649 288.58 155.698 285.945C153.289 285.356 150.917 284.663 148.444 284.273C145.757 283.837 141.65 283.172 137.873 282.791C137.18 282.329 136.353 282.016 135.463 281.881C134.525 281.169 133.31 280.746 132.01 280.678C131.446 280.097 130.732 279.626 129.916 279.298C129.88 279.305 129.844 279.31 129.807 279.31C128.561 276.782 127.994 274.04 128.144 271.266C128.294 268.492 129.158 265.748 130.678 263.215C131.906 261.242 133.55 259.362 133.98 257.209C134.41 255.055 133.671 252.704 135.203 250.918C136.962 248.742 140.767 248.828 143.742 249.402Z" fill="#E0674E"/>
</g>
<g id="middle-r">
<path id="proximal-3-r" d="M195.443 210.934C199.285 212.811 203.935 211.15 208.119 212.067C211.798 212.865 214.816 215.639 216.755 218.872C222.835 228.955 218.077 243.897 207.291 248.611C202.254 250.813 196.54 250.938 191.08 251.011L127.25 251.975C123.034 252.035 118.188 251.817 115.578 248.499C113.478 245.82 112.115 239.903 111.739 236.519C111.362 233.135 111.973 229.494 114.136 226.828C117.34 222.934 122.343 217.176 127.32 216.11C131.413 215.259 135.689 215.687 139.816 214.952C141.314 214.641 142.806 214.249 144.33 214.116C146.202 214.042 148.076 214.13 149.932 214.381C154.046 214.729 158.188 214.493 162.237 213.681C167.181 212.653 171.837 212.4 176.773 211.333C180.396 210.58 184.077 209.814 187.734 210.014C189.991 210.209 193.245 211.319 195.443 210.934Z" fill="#E0674E"/>
<path id="intermediate-3-r" d="M269.245 246.975C266.267 248.616 262.817 249.169 259.435 249.505C251.88 250.075 244.295 250.157 236.73 249.752L219.634 249.221C217.207 249.144 214.629 249.026 212.595 247.692C209.794 245.864 208.777 242.296 208.146 239.016C207.435 235.292 206.953 231.527 206.701 227.744C206.397 223.089 206.63 217.923 209.813 214.514C213.612 210.435 219.978 210.5 225.549 210.864C234.87 211.479 244.273 212.149 253.64 212.694C258.321 212.956 264.771 211.901 269.099 214.096C280.486 219.838 280.36 241.14 269.245 246.975Z" fill="#E0674E"/>
<path id="distal-3-r" d="M319.695 245.913C317.251 248.893 313.452 250.275 309.69 251.19C303.019 252.874 296.155 253.673 289.276 253.565C284.151 253.477 278.48 252.582 275.37 248.531C273.661 246.302 273.017 243.453 272.523 240.686C271.531 235.011 270.986 229.268 270.892 223.508C270.812 219.582 271.651 214.679 275.414 213.57C276.819 213.271 278.275 213.298 279.668 213.645L312.177 217.894C323.548 219.87 330.947 232.042 319.695 245.913Z" fill="#E0674E"/>
</g>
<g id="index-r">
<path id="proximal-2-r" d="M142.965 176.017L190.403 177.534C195.415 177.7 195.658 177.309 200.319 179.112C203.672 178.168 207.273 180.456 208.935 183.518C210.597 186.58 210.773 190.216 210.781 193.699C210.782 198.163 210.576 202.716 209.104 206.922C207.814 210.954 205.029 214.34 201.321 216.383C198.191 216.217 195.064 216.12 191.925 216.214C191.044 216.225 190.183 216.476 189.434 216.941C188.67 216.81 187.887 216.843 187.137 217.036C186.386 217.228 185.685 217.577 185.078 218.058C170.6 218.129 156.127 218.191 141.656 218.241C134.791 218.274 127.511 218.185 121.699 214.53C120.798 210.775 117.287 208.713 115.793 205.143C115.152 203.249 115.065 201.211 115.542 199.269C116.681 192.741 119.629 186.664 124.051 181.73C128.083 177.233 136.901 175.826 142.965 176.017Z" fill="#68B6CE"/>
<path id="intermediate-2-r" d="M203.821 178.372C216.971 179.271 230.121 180.168 243.272 181.06C248.291 181.406 253.83 181.981 257.251 185.678C260.903 189.616 260.799 195.626 260.357 200.969C259.915 206.313 258.736 212.699 253.887 215.178C250.89 216.708 247.308 216.28 243.914 216.025C236.499 215.468 229.042 215.972 221.768 217.521C213.911 217.517 206.072 216.54 198.204 216.276L198.129 216.179C197.505 214.897 197.223 213.474 197.312 212.05C197.144 202.751 197.559 193.45 198.555 184.202C198.807 181.899 199.48 179.158 201.713 178.472C202.405 178.318 203.117 178.285 203.821 178.372Z" fill="#68B6CE"/>
<path id="distal-2-r" d="M268.12 219.395C266.225 219.493 264.326 219.315 262.483 218.865C258.267 217.644 255.258 213.759 253.938 209.561C252.617 205.364 252.856 200.869 253.27 196.498C253.783 191.171 255.192 185.035 260.039 182.746C263.296 181.216 267.112 181.964 270.618 182.735L301.177 184.894C309.826 186.797 312.846 200.288 308.419 211.698C304.512 221.694 276.836 219.333 268.12 219.395Z" fill="#68B6CE"/>
</g>
</g>
</g>
</g>
</g>
</svg>
