<svg width="396" height="434" viewBox="0 0 396 434" fill="none" xmlns="http://www.w3.org/2000/svg">
<g id="l 2">
<g id="l 1">
<g id="hand-colored-r 1">
<g id="hand-r">
<g id="palm-r">
<path id="metacarpal-lower-r" d="M74.94 300.71C71.41 297.04 64.75 300.48 63.39 305.46C62.03 310.44 64.12 315.63 66.17 320.35C77.13 345.59 88.0866 370.837 99.04 396.09C101.96 402.83 105.99 410.47 113.04 411.53C117.32 412.17 121.51 410.12 125.38 408.12C141.04 400.04 156.84 391.86 170.38 380.44C175.54 376.09 180.38 371.31 185.12 366.52C216.64 334.93 248.63 301.39 263.64 258.79C264.839 255.787 265.564 252.616 265.79 249.39C266.04 240.98 260.36 233.78 254.99 227.39C254.57 220.84 247.82 212.92 241.74 210.98C235.66 209.04 229.03 210.08 223.04 212.26C217.05 214.44 211.49 217.72 205.67 220.37C197.91 223.92 189.67 226.37 182.11 230.32C172.2 235.47 163.67 243.02 154.22 249.03C141.22 257.32 126.55 262.6 113.22 270.34C98.33 279.02 87.93 289.24 74.94 300.71Z" fill="#E5B0A5"/>
<path id="index-metacarpal-r" d="M191.06 250C202.42 249.1 217.83 248.2 227.14 240.51C235.7 233.45 241.7 231.39 245.4 219.98C248.88 209.23 250.58 196.63 243.4 187.11C237.61 179.47 227.86 176.54 218.66 176.02C208.663 175.48 198.676 177.246 189.47 181.18C186.07 182.63 182.68 184.45 180.35 187.45C178.706 189.78 177.481 192.379 176.73 195.13C172.6 208.179 171.636 222.025 173.92 235.52C174.74 240.39 176.29 245.64 180.24 248.26C183.36 250.37 187.35 250.29 191.06 250Z" fill="#E5B0A5"/>
<path id="metacarpal-upper-r" d="M169.97 180.55C166.601 180.987 163.307 181.882 160.18 183.21C152.01 187.13 145.01 192.09 136.56 195.72C127.157 199.751 118.088 204.523 109.44 209.99C103.07 214.013 96.9485 218.418 91.11 223.18C90.7718 224.112 90.1948 224.939 89.4366 225.577C88.6785 226.216 87.7658 226.645 86.79 226.82C79.0447 233.528 71.9069 240.906 65.46 248.87C62.3999 252.439 59.8243 256.397 57.8 260.64C52.08 273.64 56.26 288.47 61.14 301.81C61.75 303.47 62.48 305.27 64.14 306.18C65.62 307 67.49 306.88 69.22 306.68C84.58 304.81 98.42 297.55 111.81 290.43C141.72 274.54 177.88 261.52 196.41 233.43C208.44 215.14 199.03 175.39 169.97 180.55Z" fill="#E5B0A5"/>
<path id="carpal-r" d="M107.89 407.46C107.77 418.31 116.52 427.62 126.49 431.22C136.46 434.82 147.39 433.87 157.86 432.45C169.74 430.837 181.53 428.663 193.23 425.93C203.06 423.64 212.33 422.59 222.23 420.61C234.81 418.08 248.55 414.84 256.29 404.34C258.925 400.458 260.948 396.195 262.29 391.7C265.87 381.15 268.01 368.84 262.29 359.31C258.58 353.09 251.98 349.1 245.09 347.31C238.2 345.52 230.97 345.72 223.88 346.31C195.718 348.651 168.347 356.798 143.49 370.24C129.14 378.01 115.27 387.93 106.82 402.15C105.4 404.65 106.21 405.09 107.89 407.46Z" fill="#E5B0A5"/>
<path id="thumb-metacarpal-r" d="M153.642 397.939C154.432 405.246 159.927 411.452 166.558 414.762C173.188 418.071 180.799 418.897 188.224 418.919C209.839 418.901 230.964 412.815 248.805 401.466C255.581 397.2 259.04 387.412 262.688 380.333C276.789 353.099 289.537 325.231 300.933 296.731C303.458 290.418 305.956 283.881 305.766 277.092C305.576 270.304 302.02 263.168 295.621 260.734C291.303 259.079 286.464 253.42 281.874 252.877C278.885 252.531 273.93 251.096 270.989 250.493C267.411 249.763 263.771 249.311 260.107 249.143C253.347 249.126 247.186 248.233 241.457 251.787C235.727 255.341 231.416 260.683 227.201 265.921L196.447 304.275C182.772 321.274 169.066 338.324 157.691 356.895C155.188 360.994 152.756 365.266 151.919 369.969C151.406 373.647 151.465 377.372 152.093 381.031C152.914 387.332 152.953 391.614 153.642 397.939Z" fill="#E5B0A5"/>
</g>
<g id="pinkie-r">
<path id="proximal-5-r" d="M78.5593 233.464C78.7027 233.555 78.7872 233.765 78.8121 234.093C78.8159 234.148 78.8185 234.21 78.8185 234.275C78.6742 234.558 78.5333 234.854 78.4186 235.116C78.3038 235.378 78.2218 235.589 78.1856 235.717C78.0735 236.102 78.0116 236.393 78.0014 236.583C77.9927 236.61 77.9854 236.632 77.9783 236.656C77.818 237.207 77.6779 237.719 77.5381 238.231C77.4546 238.431 77.396 238.591 77.3683 238.694C77.2353 239.16 77.0388 239.747 76.8855 240.252C76.8394 240.363 76.7933 240.473 76.7437 240.589C76.2881 241.659 75.7072 242.934 75.0851 244.17C74.7414 244.846 74.3994 245.501 74.0684 246.115C73.4971 247.185 72.9286 248.246 72.363 249.297C72.161 249.679 71.9711 250.017 71.809 250.285C71.6822 250.482 71.5882 250.602 71.5349 250.636C71.2745 250.857 71.0683 251.026 71.4042 250.086C72.1375 248.032 72.6288 246.41 72.8598 245.282C72.9823 244.682 73.0344 244.21 73.36 243.231C73.6855 242.253 74.3556 240.623 75.234 238.838C75.5937 238.113 75.9578 237.404 76.3111 236.74C76.6186 236.152 76.9179 235.599 77.1988 235.1C78.0917 233.531 78.4031 233.365 78.5593 233.464Z" fill="#E0674E"/>
<path id="intermediate-5-r" d="M108.929 249.467C106.369 246.066 93 224.157 86.8771 224.157C82.9561 224.315 79.2606 226.6 76.1512 228.917C71.106 232.672 66.278 236.71 61.6903 241.012C60.1934 242.427 58.6925 243.918 58.3047 245.956C58.1747 246.765 58.1837 247.591 58.3313 248.397C59.3642 255.188 65.6676 260.41 71.4914 264.885L81.862 272.852C82.9596 273.793 84.2051 274.543 85.5498 275.074C88.5175 276.064 91.5984 274.758 94.2545 273.455L107.023 267.258C108.712 266.428 110.472 265.543 111.418 264.002C113.986 259.86 109.332 254.433 108.929 249.467Z" fill="#E0674E"/>
<path id="distal-5-r" d="M127.201 270.248C133.372 275.715 138.532 282.227 142.442 289.485C144.143 292.67 145.625 296.116 145.526 299.699C145.34 306.181 139.695 311.575 133.387 313.079C129.22 313.947 124.898 313.704 120.855 312.373C115.576 308.954 110.554 305.155 105.826 301.006C99.1898 294.851 94.8376 286.698 88.1072 280.552C87.2059 276.884 87.5154 273.022 88.9892 269.544C90.4981 266.063 93.0892 263.191 95.6494 260.382C96.6798 259.148 97.8607 258.047 99.1632 257.105C102.123 255.138 106.688 254.282 110.264 254.122C114.439 260.662 121.327 265.035 127.201 270.248Z" fill="#E0674E"/>
</g>
<g id="ring-r">
<path id="proximal-4-r" d="M128.917 215.287C126.668 213.528 123.722 212.654 120.196 212.698C119.703 212.68 119.14 212.778 118.524 212.988C118.397 213.116 118.266 213.233 118.135 213.335C117.831 213.563 117.545 213.683 117.334 213.671C116.966 213.962 116.602 214.328 116.279 214.732C115.125 216.155 114.449 217.694 113.868 219.115C113.41 220.229 112.964 221.383 113.026 222.166C113.117 223.272 114.184 223.365 115.193 223.397C116.941 223.455 119.133 222.715 120.547 223.308C120.727 223.382 120.913 223.456 121.105 223.526C122.16 223.903 123.435 224.088 125.249 223.038C127.063 221.988 129.239 219.533 129.727 217.69C130.073 216.383 129.517 215.759 128.917 215.287Z" fill="#E0674E"/>
<path id="intermediate-4-r" d="M143.5 210.5C140.528 207.262 136 195.991 127.6 195.991C126.714 196.351 125.858 196.781 125.04 197.277L112.639 204.479C108.193 207.049 103.362 210.119 102.097 215.087C100.61 220.908 104.642 226.583 108.456 231.249C113.721 237.714 118.986 244.174 124.25 250.63C125.318 252.045 126.54 253.336 127.892 254.482C128.514 254.958 129.185 255.367 129.894 255.701C130.357 255.814 130.803 255.993 131.217 256.233C141.073 259.616 158.387 253.117 159.1 242.618C159.834 231.826 149.144 220.104 143.5 210.5Z" fill="#E0674E"/>
<path id="distal-4-r" d="M161.986 245.925C164.731 250.774 170.66 255.938 174.505 259.969C175.797 261.255 176.986 262.641 178.062 264.113C178.879 265.354 179.614 266.647 180.264 267.984L186.251 279.593C188.676 284.295 191.014 288.615 188.323 293.16C187.415 294.542 186.31 295.784 185.044 296.846C182.834 299.081 180.326 301.001 177.592 302.551C174.83 303.896 171.76 304.478 168.698 304.235C165.636 303.993 162.695 302.936 160.18 301.174C152.495 295.641 147.121 287.488 142.908 279.01C141.987 277.139 141.161 275.216 140.065 273.447C138.883 271.516 137.076 268.565 135.251 266.015C135.193 265.269 134.955 264.548 134.557 263.915C134.537 262.845 134.162 261.812 133.49 260.978C133.586 260.226 133.521 259.462 133.3 258.737C133.275 258.721 133.252 258.702 133.231 258.68C134.319 256.138 135.933 253.855 137.968 251.982C140.002 250.109 142.41 248.689 145.034 247.814C147.101 247.159 149.335 246.821 151.088 245.556C152.84 244.292 154.084 242.182 156.19 241.842C158.694 241.365 160.742 243.723 161.986 245.925Z" fill="#E0674E"/>
</g>
<g id="middle-r">
<path id="proximal-3-r" d="M170.057 192.654C168.951 193.369 168.945 192.879 168.124 193.269C167.404 193.608 166.096 194.618 164.763 195.768C160.605 199.352 156.127 204.422 155.848 205.858C155.718 206.528 156.374 206.471 157.017 206.401L164.492 205.61C164.987 205.556 165.653 205.396 167.096 204.205C168.259 203.244 170.43 201.179 171.622 200.006C172.815 198.832 173.973 197.588 174.611 196.705C175.538 195.419 176.877 193.521 176.63 193.241C176.418 193.02 175.75 193.242 175.494 193.061C175.417 192.981 175.367 192.871 175.226 192.852C175.023 192.86 174.763 192.923 174.452 193.042C173.831 193.235 173.405 193.226 173.185 193.017C172.928 192.75 172.445 192.745 172.203 192.464C172.016 192.268 171.825 192.068 171.31 192.201C170.969 192.309 170.195 192.749 170.057 192.654Z" fill="#E0674E"/>
<path id="intermediate-3-r" d="M178.119 244.685C175.15 243.029 172.852 240.396 170.775 237.706C166.287 231.601 162.197 225.214 158.531 218.584L149.921 203.804C148.7 201.706 147.433 199.458 147.486 197.025C147.553 193.682 150.039 190.928 152.486 188.654C155.267 186.078 158.205 183.674 161.278 181.455C165.065 178.73 169.569 176.189 174.146 177.081C179.619 178.141 182.938 183.574 185.582 188.491C190 196.721 194.416 205.05 198.918 213.281C201.178 217.39 205.491 222.301 205.923 227.135C207.089 239.835 188.959 251.017 178.119 244.685Z" fill="#E0674E"/>
<path id="distal-3-r" d="M205.76 286.903C201.937 286.409 198.752 283.921 195.981 281.215C191.018 276.451 186.703 271.054 183.148 265.163C180.507 260.77 178.259 255.488 180.047 250.703C181.03 248.071 183.106 246.017 185.19 244.131C189.477 240.282 194.058 236.776 198.893 233.644C202.179 231.495 206.781 229.608 209.717 232.21C210.715 233.244 211.464 234.492 211.907 235.858L225.5 261C229.85 271.69 223.486 289.092 205.76 286.903Z" fill="#E0674E"/>
</g>
<g id="index-r">
<path id="proximal-2-r" d="M234.983 178.97L233.908 131.52C233.788 126.507 234.181 126.267 232.422 121.589C233.397 118.245 231.142 114.623 228.096 112.932C225.05 111.242 221.416 111.033 217.933 110.992C213.469 110.95 208.915 111.113 204.695 112.546C200.651 113.798 197.239 116.552 195.162 120.241C195.299 123.372 195.367 126.5 195.244 129.638C195.225 130.519 194.966 131.377 194.493 132.122C194.617 132.887 194.577 133.669 194.377 134.418C194.178 135.167 193.823 135.865 193.336 136.468C193.13 150.943 192.934 165.416 192.748 179.886C192.652 186.75 192.673 194.031 196.274 199.876C200.021 200.812 202.05 204.342 205.605 205.869C207.494 206.528 209.531 206.634 211.477 206.175C218.015 205.097 224.12 202.205 229.095 197.829C233.628 193.839 235.118 185.035 234.983 178.97Z" fill="#68B6CE"/>
<path id="intermediate-2-r" d="M233.195 118.094C232.418 104.936 231.643 91.7783 230.873 78.6205C230.574 73.5981 230.051 68.0535 226.386 64.5983C222.483 60.9104 216.472 60.958 211.124 61.3506C205.777 61.7432 199.38 62.8622 196.856 67.6876C195.298 70.6707 195.693 74.256 195.916 77.6522C196.404 85.0728 195.831 92.525 194.214 99.7836C194.145 107.641 195.049 115.488 195.24 123.359L195.336 123.434C196.613 124.07 198.032 124.365 199.457 124.289C208.755 124.544 218.059 124.216 227.316 123.306C229.621 123.075 232.368 122.427 233.075 120.201C233.235 119.51 233.275 118.799 233.195 118.094Z" fill="#68B6CE"/>
<path id="distal-2-r" d="M192.772 53.416C192.656 55.3101 192.817 57.2108 193.249 59.0585C194.431 63.2856 198.288 66.3302 202.473 67.6895C206.658 69.0489 211.154 68.8523 215.53 68.4792C220.861 68.0157 227.01 66.6635 229.344 61.8383C230.904 58.595 230.192 54.7728 229.454 51.2597L225.5 21C223.678 12.3336 212.294 8.87046 200.844 13.1912C190.812 17.0049 192.915 44.7017 192.772 53.416Z" fill="#68B6CE"/>
</g>
<g id="thumb-r">
<path id="proximal-1-r" d="M338.305 252.884C336.29 247.655 332.753 242.128 327.194 240.654C320.308 238.816 314.372 243.923 309.019 247.862C298.376 255.697 285.231 259.978 273.895 266.9C262.559 273.822 252.55 284.864 253.24 298.275C251.933 299.641 254.21 302.761 255.231 304.548C257.981 309.598 261.163 314.634 265.422 318.714C269.681 322.794 275.175 325.946 280.991 326.378C282.38 326.52 283.784 326.411 285.135 326.055C287.022 325.368 288.753 324.31 290.223 322.941L296.055 318.192C308.333 308.159 318.247 297.953 332.696 290.928C336.679 288.986 340.883 287.088 343.521 283.653C347.598 278.356 346.949 270.832 346.138 263.985C345.637 259.825 344.96 255.285 341.783 252.23C338.833 249.398 334.307 248.46 331.635 245.389" fill="#68B6CE"/>
<path id="distal-1-r" d="M395.149 237.493C392.771 231.465 386.263 227.956 379.81 227.308C373.358 226.66 366.987 228.324 360.776 229.98L358.429 230.601C358.12 231.07 357.713 231.467 357.236 231.763C356.76 232.059 356.224 232.248 355.668 232.318C354.466 232.494 353.264 232.64 352.083 232.776C337.055 234.895 321.813 243.413 310.039 252.822C308.302 255.021 307.152 257.548 307.901 260.137C308.333 261.359 308.999 262.484 309.861 263.45C319.94 276.073 339.068 280.433 353.624 273.417C367.706 266.645 376.301 251.357 390.519 244.918C392.641 243.943 395.164 242.874 395.652 240.599C395.796 239.537 395.621 238.456 395.149 237.493Z" fill="#68B6CE"/>
</g>
</g>
</g>
</g>
</g>
</svg>
