<svg width="293" height="434" viewBox="0 0 293 434" fill="none" xmlns="http://www.w3.org/2000/svg">
<g id="o 2">
<g id="o 1">
<g id="hand-colored-r 1">
<g id="hand-r">
<g id="palm-r">
<path id="metacarpal-lower-r" d="M55.7238 270.177C53.5028 266.624 49.7448 270.2 49.1568 275.172C48.5688 280.144 50.0098 285.24 51.4078 289.87C58.8838 314.628 66.3568 339.394 73.8288 364.166C75.8208 370.778 78.5008 378.255 82.6748 379.132C85.2088 379.661 87.5768 377.524 89.7598 375.445C98.5948 367.046 107.507 358.544 114.96 346.884C117.8 342.443 120.435 337.583 123.011 332.716C140.152 300.611 157.486 266.56 164.496 223.944C165.073 220.937 165.365 217.774 165.362 214.569C165.157 206.223 161.529 199.224 158.116 193.019C157.596 186.534 153.312 178.847 149.669 177.074C146.027 175.3 142.187 176.495 138.77 178.805C135.352 181.115 132.233 184.505 128.935 187.276C124.538 190.989 119.814 193.622 115.551 197.726C109.962 203.077 105.282 210.775 99.9978 216.969C92.7308 225.511 84.3588 231.109 76.8748 239.114C68.5158 248.089 62.8518 258.481 55.7238 270.177Z" fill="#E5B0A5"/>
<path id="index-metacarpal-r" d="M117.694 213.354C123.975 212.174 132.51 210.899 137.361 202.872C141.821 195.503 145.071 193.271 146.64 181.599C148.116 170.603 148.522 157.77 144.12 148.272C140.572 140.651 135.022 137.905 129.881 137.593C124.296 137.279 118.815 139.307 113.862 143.517C112.032 145.069 110.224 146.996 109.056 150.097C108.241 152.501 107.671 155.169 107.371 157.98C105.632 171.326 105.689 185.407 107.538 199.055C108.202 203.98 109.289 209.274 111.599 211.842C113.425 213.911 115.642 213.736 117.694 213.354Z" fill="#E5B0A5"/>
<path id="metacarpal-upper-r" d="M102.986 143.335C101.13 143.858 99.3358 144.844 97.6528 146.265C93.2748 150.437 89.5928 155.638 85.0478 159.521C79.9888 163.835 75.1478 168.893 70.5698 174.647C67.1988 178.881 63.9808 183.497 60.9368 188.469C60.7888 189.423 60.5028 190.276 60.1088 190.942C59.7138 191.608 59.2248 192.065 58.6898 192.266C54.6678 199.259 51.0118 206.917 47.7668 215.154C46.2168 218.85 44.9538 222.929 44.0088 227.285C41.3828 240.618 44.3438 255.577 47.6298 269.007C48.0408 270.678 48.5238 272.489 49.4868 273.374C50.3448 274.172 51.3798 274.006 52.3338 273.762C60.7998 271.503 68.1888 263.807 75.3338 256.264C91.2938 239.428 110.854 225.36 119.961 196.405C125.87 177.552 118.933 137.414 102.986 143.335Z" fill="#E5B0A5"/>
<path id="carpal-r" d="M78.1638 375.18C78.5618 386.199 83.8288 395.446 89.5298 398.867C95.2308 402.288 101.272 401.067 107.036 399.38C113.576 397.463 120.043 394.979 126.435 391.93C131.806 389.374 136.918 388.091 142.342 385.848C149.232 382.984 156.738 379.372 160.594 368.529C161.894 364.526 162.837 360.15 163.391 355.555C164.931 344.759 165.595 332.21 162.004 322.668C159.674 316.44 155.831 312.544 151.921 310.888C148.011 309.232 143.997 309.605 140.078 310.37C124.51 313.408 109.631 322.322 96.3768 336.554C88.7258 344.779 81.4338 355.177 77.3418 369.813C76.6588 372.385 77.1278 372.813 78.1638 375.18Z" fill="#E5B0A5"/>
<path id="thumb-metacarpal-r" d="M114.964 363.233C115.659 370.689 119.263 377.018 123.497 380.388C127.731 383.759 132.509 384.594 137.149 384.608C150.653 384.567 163.683 378.332 174.517 366.73C178.632 362.369 180.523 352.375 182.607 345.147C190.665 317.335 197.862 288.879 204.195 259.778C205.599 253.333 206.979 246.658 206.673 239.729C206.367 232.801 203.948 225.522 199.883 223.045C197.139 221.36 193.96 215.589 191.078 215.041C189.2 214.69 186.065 213.231 184.211 212.619C181.955 211.877 179.668 211.42 177.375 211.253C173.151 211.242 169.277 210.338 165.796 213.971C162.314 217.604 159.768 223.062 157.279 228.412L139.123 267.59C131.049 284.954 122.956 302.371 116.361 321.338C114.91 325.524 113.509 329.886 113.116 334.687C112.897 338.441 113.037 342.243 113.53 345.977C114.217 352.407 114.359 356.778 114.964 363.233Z" fill="#E5B0A5"/>
</g>
<g id="index-r">
<path id="proximal-2-r" d="M107.057 137.808L130.581 96.5865C133.072 92.2345 132.84 91.8365 136.613 88.5594C137.347 85.1544 141.053 83.0416 144.537 83.0042C148.021 82.9668 151.317 84.512 154.399 86.1331C158.345 88.2201 162.274 90.5312 165.304 93.7995C168.264 96.8255 169.955 100.87 170.027 105.103C168.416 107.792 166.868 110.51 165.483 113.329C165.08 114.113 164.9 114.991 164.961 115.871C164.488 116.486 164.151 117.192 163.971 117.946C163.79 118.699 163.769 119.482 163.911 120.244C157.204 133.074 150.49 145.896 143.767 158.711C140.586 164.794 137.103 171.188 131.154 174.615C127.414 173.656 123.949 175.795 120.095 175.446C118.121 175.127 116.279 174.251 114.785 172.921C109.548 168.862 105.555 163.414 103.261 157.198C101.172 151.531 104.052 143.079 107.057 137.808Z" fill="#68B6CE"/>
<path id="intermediate-2-r" d="M158.759 85.589C171.899 86.6252 185.039 87.6584 198.179 88.6877C203.195 89.0859 208.728 89.7175 212.11 93.4505C215.721 97.4255 215.555 103.434 215.057 108.773C214.559 114.111 213.314 120.485 208.44 122.914C205.427 124.412 201.85 123.947 198.459 123.656C191.049 123.022 183.587 123.448 176.298 124.923C168.441 124.836 160.613 123.779 152.748 123.432L152.674 123.335C152.064 122.046 151.796 120.621 151.9 119.198C151.829 109.897 152.34 100.601 153.432 91.364C153.708 89.0639 154.41 86.3298 156.65 85.6672C157.344 85.5207 158.056 85.4947 158.759 85.589Z" fill="#68B6CE"/>
<path id="distal-2-r" d="M205.789 133.002C203.98 132.426 202.266 131.591 200.698 130.521C197.182 127.894 195.734 123.198 195.976 118.805C196.217 114.411 198.023 110.289 199.949 106.342C202.304 101.537 205.783 96.2905 211.126 95.8545C214.714 95.5695 218.021 97.6125 221.032 99.5685L234.002 107.959C241.428 112.785 254.377 130.863 246.217 139.984C239.041 147.964 213.968 136.012 205.789 133.002Z" fill="#68B6CE"/>
</g>
<g id="middle-r">
<path id="proximal-3-r" d="M134.617 77.292C138.963 75.4489 140.81 70.3951 144.565 67.579C147.859 65.0963 152.398 64.5821 156.573 65.2938C169.618 67.4858 179.211 82.1668 175.672 94.5095C174.019 100.273 170.087 105.109 166.289 109.695L121.985 163.394C119.055 166.938 115.438 170.806 110.715 170.591C106.907 170.41 100.812 167.294 97.6108 165.176C94.4088 163.059 91.6848 159.937 90.9018 156.226C89.7908 150.769 88.3338 142.479 90.9298 137.58C93.0858 133.571 96.4818 130.327 98.7628 126.372C99.5518 124.904 100.267 123.384 101.23 122.022C102.489 120.416 103.892 118.923 105.421 117.561C108.632 114.395 111.358 110.785 113.517 106.84C116.122 101.996 119.195 97.9485 121.76 93.0825C123.669 89.5334 125.608 85.9266 128.368 83.0329C130.133 81.2985 133.398 79.3937 134.617 77.292Z" fill="#E0674E"/>
<path id="intermediate-3-r" d="M208.935 112.077C205.727 113.205 202.233 113.182 198.842 112.955C191.296 112.272 183.802 111.103 176.406 109.456L159.632 106.113C157.251 105.637 154.728 105.096 152.942 103.445C150.481 101.18 150.065 97.4935 149.984 94.1545C149.897 90.364 150.042 86.5713 150.417 82.7986C150.885 78.1566 151.966 73.1001 155.668 70.2622C160.087 66.8656 166.356 67.9797 171.791 69.2568C180.882 71.4006 190.046 73.6116 199.195 75.6931C203.769 76.7238 210.305 76.7465 214.212 79.625C224.496 87.166 220.86 108.155 208.935 112.077Z" fill="#E0674E"/>
<path id="distal-3-r" d="M233.048 137.384C229.257 138.078 225.465 136.678 222.003 134.944C215.824 131.918 210.07 128.091 204.89 123.563C201.036 120.183 197.287 115.835 197.533 110.733C197.669 107.928 199.019 105.338 200.431 102.908C203.341 97.9365 206.637 93.2015 210.289 88.7462C212.764 85.6983 216.574 82.4991 220.162 84.0847C221.428 84.7654 222.521 85.726 223.36 86.8921L237.272 103.408C244.671 112.265 250.599 134.072 233.048 137.384Z" fill="#E0674E"/>
</g>
<g id="ring-r">
<path id="proximal-4-r" d="M88.1088 199.474C97.5638 181.445 104.008 161.991 107.189 141.884C107.734 139.001 107.864 136.055 107.577 133.135C107.168 132.777 106.809 132.366 106.508 131.913C105.853 130.828 105.628 129.536 105.877 128.293C105.019 127.027 103.847 126.006 102.475 125.329C97.6668 122.847 91.9178 123.447 86.5698 124.251C82.3778 124.869 78.0098 125.666 74.6968 128.302C70.0178 132.043 68.6118 138.439 67.5168 144.322C65.6088 154.524 66.5888 164.951 62.7768 174.789C62.2978 176.041 61.8118 177.324 61.3398 178.625C58.7658 185.779 56.7798 193.635 59.4118 200.988C62.0448 208.341 70.1638 213.681 77.3538 211.12C82.4538 209.298 85.5778 204.289 88.1088 199.474Z" fill="#E0674E"/>
<path id="intermediate-4-r" d="M105.546 144.21C106.385 143.571 107.409 143.219 108.464 143.208L108.236 143.205C108.456 143.201 108.676 143.182 108.894 143.149C109.153 143.042 109.412 142.935 109.671 142.828C110.38 142.541 111.147 142.424 111.91 142.486C115.033 139.393 118.527 136.699 122.316 134.469C130.517 126.932 145.246 121.412 147.694 110.876C150.077 100.627 135.415 89.3561 125.001 89.7143C124.535 89.823 124.056 89.8643 123.58 89.8369C122.805 89.9493 122.043 90.1445 121.31 90.4188C119.682 91.1194 118.136 91.9982 116.701 93.0395C109.782 97.6765 102.86 102.318 95.9378 106.964C90.9278 110.314 85.4138 114.564 85.1368 120.566C84.8958 125.687 88.6208 130.033 92.1228 133.79L101.881 144.298C102.518 145.011 103.211 145.672 103.954 146.275C104.304 145.464 104.851 144.754 105.546 144.21Z" fill="#E0674E"/>
<path id="distal-4-r" d="M135.876 126.416C141.343 127.49 148.114 131.488 153.152 133.865C154.78 134.685 156.47 135.377 158.207 135.933C159.643 136.317 161.102 136.607 162.575 136.801L175.48 138.821C180.707 139.638 185.544 140.494 189.008 136.506C190.033 135.209 190.863 133.769 191.471 132.232C192.895 129.43 193.926 126.444 194.534 123.361C194.939 120.316 194.522 117.219 193.326 114.39C192.131 111.561 190.2 109.103 187.734 107.272C180.059 101.726 170.628 99.1975 161.253 97.8745C159.187 97.5915 157.102 97.4135 155.077 96.9325C152.872 96.4195 149.502 95.6355 146.506 94.7085C145.78 94.8885 145.021 94.8895 144.295 94.7125C143.273 95.0315 142.174 95.0005 141.171 94.6265C140.488 94.9545 139.743 95.1345 138.985 95.1535C138.961 95.1345 138.936 95.1185 138.909 95.1055C136.839 96.9395 135.183 99.1925 134.047 101.713C132.912 104.234 132.323 106.968 132.321 109.733C132.351 111.902 132.735 114.128 132.088 116.19C131.441 118.252 129.832 120.098 130.173 122.203C130.51 124.73 133.394 125.93 135.876 126.416Z" fill="#E0674E"/>
</g>
<g id="pinkie-r">
<path id="proximal-5-r" d="M104.878 205.299C103 211.5 100.779 223.632 97.5558 228.807C94.0418 234.453 89.3328 240.3 82.7398 240.816C80.7008 240.895 78.6618 240.666 76.6908 240.137C74.3498 239.71 72.0978 238.893 70.0288 237.72C65.0668 234.64 62.9728 228.311 63.1368 222.457C63.2998 216.602 65.3138 210.987 66.8418 205.335C69.6938 194.742 70.8528 183.763 70.2738 172.806C69.9988 167.811 72.7478 164.806 76.1618 161.146C76.9318 160.23 77.9088 159.51 79.0118 159.046C80.3168 158.697 81.6878 158.661 83.0098 158.943C86.8288 159.458 90.6378 160.044 94.4368 160.703C96.6768 160.993 98.8658 161.586 100.946 162.467C104.641 164.221 107.328 167.657 108.99 171.401C109.167 171.789 109.319 172.182 109.47 172.576L109.486 172.616C109.126 176.037 109.054 179.509 108.568 182.885C108.431 183.673 108.505 184.484 108.782 185.235C108.133 189.111 107.489 192.979 106.971 196.891C106.955 197.047 106.945 197.194 106.943 197.347C105.929 199.903 105.66 202.716 104.878 205.299Z" fill="#E0674E"/>
<path id="intermediate-5-r" d="M104.579 175.36C109.635 171.691 114.352 167.576 118.676 163.066C120.693 159.317 123.037 155.753 125.679 152.414C126.202 147.46 130.987 142.148 128.52 137.944C127.612 136.381 125.874 135.454 124.205 134.582L111.591 128.077C108.968 126.71 105.92 125.33 102.929 126.247C101.572 126.745 100.308 127.465 99.1878 128.379L88.6268 136.091C82.6958 140.423 76.2668 145.491 75.0698 152.254C74.9028 153.057 74.8728 153.882 74.9838 154.694C75.3218 156.741 76.7858 158.268 78.2478 159.719C82.7298 164.131 87.4578 168.286 92.4108 172.162C95.4628 174.553 99.1018 176.928 103.018 177.181C103.375 176.452 103.912 175.825 104.579 175.36Z" fill="#E0674E"/>
<path id="distal-5-r" d="M133.2 158.328C141.428 157.804 149.5 155.835 157.044 152.51C160.342 151.041 163.629 149.232 165.752 146.344C169.587 141.115 168.445 133.391 164.391 128.33C161.637 125.085 158.077 122.622 154.069 121.188C147.803 120.644 141.506 120.556 135.227 120.927C126.21 121.707 117.767 125.467 108.681 126.182C105.716 128.523 103.589 131.76 102.615 135.41C101.667 139.084 101.948 142.942 102.242 146.732C102.298 148.338 102.553 149.932 103.003 151.476C104.13 154.846 107.206 158.325 109.93 160.648C117.242 158.053 125.363 158.832 133.2 158.328Z" fill="#E0674E"/>
</g>
<g id="thumb-r">
<path id="proximal-1-r" d="M243.227 187.898C240.251 183.149 235.725 178.399 229.987 178.013C222.877 177.522 218.024 183.668 213.521 188.556C204.568 198.278 192.482 204.988 182.675 213.946C172.868 222.904 165.149 235.652 168.386 248.685C167.363 250.276 170.194 252.904 171.537 254.464C175.2 258.896 179.285 263.232 184.244 266.425C189.202 269.617 195.197 271.663 200.989 270.978C202.38 270.852 203.737 270.477 204.995 269.87C206.716 268.836 208.213 267.466 209.395 265.842L214.214 260.068C224.352 247.876 232.137 235.966 244.98 226.313C248.519 223.647 252.283 220.981 254.218 217.106C257.209 211.129 255.136 203.867 253.034 197.3C251.749 193.312 250.218 188.985 246.516 186.592C243.08 184.375 238.459 184.318 235.25 181.813" fill="#68B6CE"/>
<path id="distal-1-r" d="M251.646 135.191C245.391 133.496 238.689 136.619 234.315 141.407C229.94 146.194 227.469 152.297 225.086 158.266L224.182 160.52C224.373 161.048 224.448 161.611 224.401 162.17C224.354 162.729 224.186 163.272 223.909 163.76C223.332 164.829 222.731 165.88 222.134 166.908C214.856 180.225 212.581 197.538 213.092 212.6C213.818 215.307 215.158 217.739 217.681 218.685C218.919 219.068 220.22 219.207 221.509 219.093C237.653 218.551 252.577 205.816 255.647 189.952C258.629 174.614 251.504 158.588 254.835 143.339C255.321 141.055 255.97 138.393 254.438 136.643C253.672 135.892 252.7 135.387 251.646 135.191Z" fill="#68B6CE"/>
</g>
</g>
</g>
</g>
</g>
</svg>
