<svg width="382" height="434" viewBox="0 0 382 434" fill="none" xmlns="http://www.w3.org/2000/svg">
<g id="r 2">
<g id="r 1">
<g id="hand-colored-r 1">
<g id="hand-r">
<g id="palm-r">
<path id="metacarpal-lower-r" d="M74.94 300.71C71.41 297.04 64.75 300.48 63.39 305.46C62.03 310.44 64.12 315.63 66.17 320.35C77.13 345.59 88.0866 370.837 99.04 396.09C101.96 402.83 105.99 410.47 113.04 411.53C117.32 412.17 121.51 410.12 125.38 408.12C141.04 400.04 156.84 391.86 170.38 380.44C175.54 376.09 180.38 371.31 185.12 366.52C216.64 334.93 248.63 301.39 263.64 258.79C264.839 255.787 265.564 252.616 265.79 249.39C266.04 240.98 260.36 233.78 254.99 227.39C254.57 220.84 247.82 212.92 241.74 210.98C235.66 209.04 229.03 210.08 223.04 212.26C217.05 214.44 211.49 217.72 205.67 220.37C197.91 223.92 189.67 226.37 182.11 230.32C172.2 235.47 163.67 243.02 154.22 249.03C141.22 257.32 126.55 262.6 113.22 270.34C98.33 279.02 87.93 289.24 74.94 300.71Z" fill="#E5B0A5"/>
<path id="index-metacarpal-r" d="M191.06 250C202.42 249.1 217.83 248.2 227.14 240.51C235.7 233.45 241.7 231.39 245.4 219.98C248.88 209.23 250.58 196.63 243.4 187.11C237.61 179.47 227.86 176.54 218.66 176.02C208.663 175.48 198.676 177.246 189.47 181.18C186.07 182.63 182.68 184.45 180.35 187.45C178.706 189.78 177.481 192.379 176.73 195.13C172.6 208.179 171.636 222.025 173.92 235.52C174.74 240.39 176.29 245.64 180.24 248.26C183.36 250.37 187.35 250.29 191.06 250Z" fill="#E5B0A5"/>
<path id="metacarpal-upper-r" d="M169.97 180.55C166.601 180.987 163.307 181.882 160.18 183.21C152.01 187.13 145.01 192.09 136.56 195.72C127.157 199.751 118.088 204.523 109.44 209.99C103.07 214.013 96.9485 218.418 91.11 223.18C90.7718 224.112 90.1948 224.939 89.4366 225.577C88.6785 226.216 87.7658 226.645 86.79 226.82C79.0447 233.528 71.9069 240.906 65.46 248.87C62.3999 252.439 59.8243 256.397 57.8 260.64C52.08 273.64 56.26 288.47 61.14 301.81C61.75 303.47 62.48 305.27 64.14 306.18C65.62 307 67.49 306.88 69.22 306.68C84.58 304.81 98.42 297.55 111.81 290.43C141.72 274.54 177.88 261.52 196.41 233.43C208.44 215.14 199.03 175.39 169.97 180.55Z" fill="#E5B0A5"/>
<path id="carpal-r" d="M107.89 407.46C107.77 418.31 116.52 427.62 126.49 431.22C136.46 434.82 147.39 433.87 157.86 432.45C169.74 430.837 181.53 428.663 193.23 425.93C203.06 423.64 212.33 422.59 222.23 420.61C234.81 418.08 248.55 414.84 256.29 404.34C258.925 400.458 260.948 396.195 262.29 391.7C265.87 381.15 268.01 368.84 262.29 359.31C258.58 353.09 251.98 349.1 245.09 347.31C238.2 345.52 230.97 345.72 223.88 346.31C195.718 348.651 168.347 356.798 143.49 370.24C129.14 378.01 115.27 387.93 106.82 402.15C105.4 404.65 106.21 405.09 107.89 407.46Z" fill="#E5B0A5"/>
<path id="thumb-metacarpal-r" d="M198.601 408.517C202.455 413.109 209.494 414.533 216.136 413.393C222.778 412.253 229.084 408.912 234.889 405.116C251.751 394.01 265.542 379.005 274.439 362.087C277.837 355.692 276.199 347.222 275.91 340.509C274.848 314.646 272.449 289.044 268.715 263.704C267.889 258.09 266.941 252.337 263.785 247.792C260.629 243.247 254.691 240.192 248.618 241.812C244.514 242.896 238.23 241.509 234.408 243.494C231.921 244.791 227.417 246.354 224.855 247.45C221.739 248.787 218.697 250.346 215.764 252.112C210.48 255.57 205.276 258.121 202.378 263.492C199.481 268.864 198.483 274.73 197.515 280.475L190.507 322.49C187.366 341.134 184.223 359.83 183.574 378.369C183.437 382.457 183.431 386.626 184.862 390.272C186.092 393.051 187.788 395.568 189.9 397.748C193.333 401.636 195.261 404.545 198.601 408.517Z" fill="#E5B0A5"/>
</g>
<g id="pinkie-r">
<path id="proximal-5-r" d="M78.5592 233.464C78.7026 233.555 78.787 233.765 78.812 234.093C78.8158 234.148 78.8183 234.21 78.8184 234.275C78.6741 234.558 78.5332 234.854 78.4184 235.116C78.3036 235.378 78.2216 235.589 78.1855 235.717C78.0734 236.102 78.0115 236.393 78.0013 236.583C77.9925 236.61 77.9852 236.632 77.9782 236.656C77.8179 237.207 77.6778 237.719 77.5379 238.231C77.4544 238.431 77.3959 238.591 77.3681 238.694C77.2352 239.16 77.0386 239.747 76.8854 240.252C76.8393 240.363 76.7932 240.473 76.7436 240.589C76.2879 241.659 75.707 242.934 75.085 244.17C74.7413 244.846 74.3992 245.501 74.0683 246.115C73.4969 247.185 72.9284 248.246 72.3628 249.297C72.1608 249.679 71.971 250.017 71.8089 250.285C71.682 250.482 71.588 250.602 71.5347 250.636C71.2744 250.857 71.0682 251.026 71.4041 250.086C72.1373 248.032 72.6286 246.41 72.8597 245.282C72.9821 244.682 73.0343 244.21 73.3598 243.231C73.6854 242.253 74.3554 240.623 75.2338 238.838C75.5936 238.113 75.9577 237.404 76.311 236.74C76.6185 236.152 76.9178 235.599 77.1986 235.1C78.0916 233.531 78.403 233.365 78.5592 233.464Z" fill="#E0674E"/>
<path id="intermediate-5-r" d="M88.393 226.016C93.3584 229.807 97.9746 234.035 102.187 238.649C104.113 242.445 106.369 246.066 108.929 249.467C109.332 254.433 113.986 259.86 111.418 264.002C110.472 265.543 108.712 266.428 107.023 267.258L94.2544 273.455C91.5983 274.758 88.5174 276.064 85.5496 275.074C84.205 274.543 82.9594 273.793 81.8619 272.852L71.4913 264.885C65.6674 260.41 59.3641 255.188 58.3312 248.397C58.1835 247.591 58.1745 246.765 58.3046 245.956C58.6924 243.918 60.1932 242.427 61.6902 241.012C66.2779 236.71 71.1058 232.672 76.1511 228.917C79.2604 226.6 82.9559 224.315 86.8769 224.157C87.2166 224.895 87.7382 225.534 88.393 226.016Z" fill="#E0674E"/>
<path id="distal-5-r" d="M127.201 270.248C133.372 275.715 138.532 282.227 142.442 289.485C144.142 292.67 145.625 296.116 145.526 299.699C145.34 306.181 139.695 311.575 133.386 313.079C129.22 313.947 124.898 313.704 120.855 312.373C115.576 308.954 110.553 305.155 105.826 301.006C99.1897 294.851 94.8375 286.698 88.1071 280.552C87.2057 276.884 87.5153 273.022 88.9891 269.544C90.498 266.063 93.089 263.191 95.6492 260.382C96.6796 259.148 97.8605 258.047 99.1631 257.105C102.123 255.138 106.687 254.282 110.264 254.122C114.439 260.662 121.327 265.035 127.201 270.248Z" fill="#E0674E"/>
</g>
<g id="ring-r">
<path id="proximal-4-r" d="M128.917 215.287C126.668 213.528 123.722 212.654 120.196 212.698C119.703 212.68 119.14 212.778 118.524 212.988C118.397 213.116 118.266 213.233 118.135 213.335C117.831 213.563 117.545 213.683 117.334 213.671C116.966 213.962 116.602 214.328 116.279 214.732C115.125 216.155 114.449 217.694 113.868 219.115C113.41 220.229 112.964 221.383 113.026 222.166C113.117 223.272 114.184 223.365 115.193 223.397C116.941 223.455 119.133 222.715 120.547 223.308C120.727 223.382 120.913 223.456 121.105 223.526C122.16 223.903 123.435 224.088 125.249 223.038C127.063 221.988 129.238 219.533 129.727 217.69C130.073 216.383 129.517 215.759 128.917 215.287Z" fill="#E0674E"/>
<path id="intermediate-4-r" d="M143.5 212C140.528 208.762 133.5 194.5 127.6 195.991C126.714 196.351 125.857 196.781 125.04 197.277L112.639 204.479C108.193 207.049 103.362 210.119 102.097 215.087C100.609 220.908 104.642 226.583 108.456 231.249C113.721 237.714 118.985 244.174 124.25 250.63C125.318 252.045 126.54 253.336 127.892 254.482C128.514 254.958 129.185 255.367 129.893 255.701C130.357 255.814 130.803 255.993 131.217 256.233C141.073 259.616 158.387 253.117 159.1 242.618C159.834 231.826 149.144 221.604 143.5 212Z" fill="#E0674E"/>
<path id="distal-4-r" d="M161.986 245.925C164.73 250.774 170.66 255.938 174.505 259.969C175.797 261.255 176.986 262.641 178.062 264.113C178.879 265.354 179.614 266.647 180.264 267.984L186.251 279.593C188.676 284.295 191.014 288.615 188.323 293.16C187.415 294.542 186.31 295.784 185.044 296.846C182.834 299.081 180.326 301.001 177.591 302.551C174.83 303.896 171.76 304.478 168.698 304.235C165.636 303.993 162.695 302.936 160.18 301.174C152.495 295.641 147.12 287.488 142.908 279.01C141.987 277.139 141.161 275.216 140.065 273.447C138.883 271.516 137.076 268.565 135.251 266.015C135.193 265.269 134.954 264.548 134.556 263.915C134.537 262.845 134.161 261.812 133.49 260.978C133.586 260.226 133.521 259.462 133.3 258.737C133.275 258.721 133.252 258.702 133.231 258.68C134.319 256.138 135.933 253.855 137.968 251.982C140.002 250.109 142.41 248.689 145.034 247.814C147.101 247.159 149.335 246.821 151.087 245.556C152.84 244.292 154.084 242.182 156.19 241.842C158.694 241.365 160.742 243.723 161.986 245.925Z" fill="#E0674E"/>
</g>
<g id="middle-r">
<path id="proximal-3-r" d="M197.469 141.068C196.423 136.921 199.006 132.714 198.97 128.43C198.947 124.665 196.853 121.141 194.089 118.578C185.473 110.553 169.872 112.133 163.038 121.717C159.847 126.194 158.547 131.759 157.352 137.087L143.268 199.352C142.342 203.465 141.558 208.252 144.267 211.489C146.457 214.095 151.966 216.647 155.2 217.712C158.434 218.778 162.123 218.929 165.177 217.361C169.647 215.027 176.312 211.317 178.38 206.666C180.055 202.836 180.516 198.563 182.085 194.676C182.699 193.274 183.389 191.896 183.833 190.431C184.29 188.615 184.59 186.763 184.727 184.895C185.233 180.798 186.316 176.792 187.945 172.997C189.969 168.371 191.175 163.866 193.235 159.256C194.718 155.866 196.225 152.421 196.782 148.801C197.057 146.552 196.64 143.139 197.469 141.068Z" fill="#E0674E"/>
<path id="intermediate-3-r" d="M177.394 61.4271C175.175 64.004 173.923 67.2656 172.898 70.5065C170.785 77.7825 169.143 85.1872 167.982 92.6744L164.982 109.514C164.558 111.904 164.143 114.451 165.029 116.716C166.242 119.833 169.523 121.564 172.603 122.856C176.102 124.318 179.687 125.565 183.336 126.591C187.83 127.847 192.933 128.682 196.924 126.269C201.698 123.391 202.945 117.147 203.736 111.621C205.052 102.374 206.332 93.034 207.728 83.7555C208.435 79.1203 210.795 73.0254 209.538 68.3388C206.263 56.0132 185.392 51.7515 177.394 61.4271Z" fill="#E0674E"/>
<path id="distal-3-r" d="M188.819 12.2763C185.4 14.055 183.265 17.4873 181.595 20.9808C178.574 27.1621 176.379 33.7142 175.068 40.4685C174.1 45.5022 173.807 51.2357 177.132 55.1131C178.961 57.2448 181.616 58.4608 184.223 59.5137C189.572 61.6533 195.08 63.3693 200.697 64.646C204.522 65.5333 209.493 65.7214 211.353 62.2674C211.935 60.9534 212.208 59.5241 212.155 58.0885L215 26.5C215.407 14.9661 204.709 4.12102 188.819 12.2763Z" fill="#E0674E"/>
</g>
<g id="index-r">
<path id="proximal-2-r" d="M230.357 174.506L213.183 130.259C211.363 125.587 211.651 125.228 208.404 121.429C208.181 117.953 204.828 115.315 201.388 114.764C197.948 114.212 194.46 115.253 191.172 116.401C186.96 117.882 182.734 119.587 179.254 122.371C175.879 124.926 173.609 128.677 172.912 132.853C174.108 135.75 175.237 138.668 176.19 141.66C176.472 142.495 176.521 143.391 176.331 144.252C176.708 144.929 176.937 145.678 177.004 146.45C177.071 147.222 176.976 147.999 176.723 148.732C181.461 162.412 186.206 176.086 190.96 189.753C193.207 196.24 195.708 203.078 201.085 207.347C204.926 206.951 208.036 209.579 211.899 209.803C213.899 209.78 215.85 209.185 217.524 208.09C223.304 204.85 228.058 200.052 231.245 194.243C234.149 188.947 232.55 180.162 230.357 174.506Z" fill="#68B6CE"/>
<path id="intermediate-2-r" d="M207.94 117.88C202.727 105.773 197.517 93.6661 192.311 81.5575C190.319 76.9375 187.939 71.9024 183.316 69.9024C178.389 67.7647 172.754 69.8569 167.86 72.0476C162.966 74.2383 157.333 77.4694 156.604 82.866C156.156 86.2011 157.748 89.4377 159.115 92.5546C162.101 99.3652 164.101 106.567 165.053 113.942C167.665 121.353 171.187 128.424 174.048 135.758L174.164 135.796C175.581 135.959 177.016 135.753 178.33 135.197C187.158 132.269 195.794 128.791 204.188 124.782C206.276 123.78 208.639 122.235 208.545 119.901C208.46 119.198 208.255 118.515 207.94 117.88Z" fill="#68B6CE"/>
<path id="distal-2-r" d="M147.903 70.839C148.439 72.6591 149.237 74.3915 150.273 75.9814C152.825 79.5531 157.488 81.1018 161.886 80.9543C166.284 80.8068 170.444 79.0904 174.431 77.2493C179.285 74.9975 184.605 71.6317 185.156 66.3C185.519 62.7191 183.547 59.3681 181.656 56.3166L167 27C162.335 19.4725 151.083 22.3077 141.79 30.2702C133.657 37.2731 145.069 62.597 147.903 70.839Z" fill="#68B6CE"/>
</g>
<g id="thumb-r">
<path id="proximal-1-r" d="M180.736 259.318C177.172 263.642 174.096 269.438 175.544 275.004C177.326 281.905 184.691 284.566 190.752 287.292C202.806 292.712 212.993 302.057 224.592 308.529C236.191 315 250.726 318.292 262.067 311.101C263.899 311.569 265.498 308.052 266.553 306.285C269.6 301.409 272.422 296.162 273.883 290.448C275.344 284.735 275.389 278.401 272.908 273.122C272.35 271.843 271.565 270.674 270.591 269.672C269.065 268.366 267.293 267.379 265.378 266.771L258.377 264.025C243.605 258.261 229.845 254.641 216.626 245.509C212.978 242.994 209.259 240.266 204.971 239.656C198.355 238.708 192.121 242.97 186.556 247.041C183.179 249.521 179.557 252.342 178.457 256.61C177.441 260.571 178.847 264.973 177.485 268.81" fill="#68B6CE"/>
<path id="distal-1-r" d="M121.864 272.615C122.961 279.002 128.617 283.765 134.802 285.716C140.985 287.667 147.562 287.338 153.979 286.984L156.404 286.855C156.803 286.459 157.282 286.154 157.809 285.961C158.336 285.768 158.899 285.692 159.458 285.737C160.67 285.811 161.877 285.913 163.061 286.021C178.204 287.013 194.864 281.784 208.31 274.976C210.459 273.177 212.101 270.938 211.896 268.25C211.722 266.967 211.3 265.729 210.654 264.607C203.362 250.193 185.526 242.022 169.845 245.92C154.677 249.676 143.144 262.889 127.91 266.291C125.635 266.812 122.947 267.345 122.005 269.472C121.646 270.482 121.598 271.577 121.864 272.615Z" fill="#68B6CE"/>
</g>
</g>
</g>
</g>
</g>
</svg>
